<svg class="main-svg" xmlns="http://www.w3.org/2000/svg" xmlns:xlink="http://www.w3.org/1999/xlink" width="1800" height="1100" style="" viewBox="0 0 1800 1100"><rect x="0" y="0" width="1800" height="1100" style="fill: rgb(255, 255, 255); fill-opacity: 1;"/><defs id="defs-f5ae8d"><g class="clips"/><g class="gradients"/><g class="patterns"/></defs><g class="bglayer"/><g class="layer-below"><g class="imagelayer"/><g class="shapelayer"/></g><g class="cartesianlayer"/><g class="polarlayer"/><g class="smithlayer"/><g class="ternarylayer"/><g class="geolayer"/><g class="funnelarealayer"/><g class="pielayer"/><g class="iciclelayer"/><g class="treemaplayer"/><g class="sunburstlayer"><g class="trace sunburst" stroke-linejoin="round" style="opacity: 1;"><g class="slice"><path class="surface" d="M900,595A0,0 0,1,0 900,595A0,0 0,1,0 900,595ZM1058.3333333333333,595A158.33333333333331,158.33333333333331 0,1,1 741.6666666666667,595A158.33333333333331,158.33333333333331 0,1,1 1058.3333333333333,595Z" style="pointer-events: none; stroke-width: 1; fill: rgb(0, 0, 0); fill-opacity: 0; stroke: rgb(255, 255, 255); stroke-opacity: 1;"/><g class="slicetext"><text data-notex="1" class="slicetext" text-anchor="middle" x="0" y="0" style="font-family: 'Times New Roman'; font-size: 22px; fill: rgb(0, 0, 0); fill-opacity: 1; white-space: pre;" transform="translate(900,588.8332503099377)scale(0.9069010028182856)"><tspan class="line" dy="0em" x="0" y="0"><tspan style="font-weight:bold">All Assistance</tspan></tspan><tspan class="line" dy="1.3em" x="0" y="0">851/851 (100.0%)</tspan></text></g></g><g class="slice cursor-pointer"><path class="surface" d="M1058.3333333333333,595L1216.6666666666665,595A316.66666666666663,316.66666666666663 0,0,0 911.1034320204317,278.5280556271292L905.5517160102158,436.7640278135646A158.33333333333331,158.33333333333331 0,0,1 1058.3333333333333,595Z" style="pointer-events: none; stroke-width: 1; fill: rgb(99, 110, 250); fill-opacity: 1; stroke: rgb(255, 255, 255); stroke-opacity: 1;"/><g class="slicetext"><text data-notex="1" class="slicetext" text-anchor="middle" x="0" y="0" style="font-family: 'Times New Roman'; font-size: 22px; fill: rgb(255, 255, 255); fill-opacity: 1; white-space: pre;" transform="translate(1065.9697160180833,426.17910725988537)scale(0.9069010028182856)rotate(-43.99529964747353)"><tspan class="line" dy="0em" x="0" y="0"><tspan style="font-weight:bold">Physical Support</tspan></tspan><tspan class="line" dy="1.3em" x="0" y="0">208/851 (24.4%)</tspan></text></g></g><g class="slice cursor-pointer"><path class="surface" d="M905.5517160102158,436.7640278135646L911.1034320204317,278.5280556271292A316.66666666666663,316.66666666666663 0,0,0 590.8150182332832,663.4282458323518L745.4075091166417,629.2141229161759A158.33333333333331,158.33333333333331 0,0,1 905.5517160102158,436.7640278135646Z" style="pointer-events: none; stroke-width: 1; fill: rgb(239, 85, 59); fill-opacity: 1; stroke: rgb(255, 255, 255); stroke-opacity: 1;"/><g class="slicetext"/></g><g class="slice cursor-pointer"><path class="surface" d="M745.4075091166417,629.2141229161759L590.8150182332832,663.4282458323518A316.66666666666663,316.66666666666663 0,0,0 1141.911495179695,799.3443326292709L1020.9557475898475,697.1721663146354A158.33333333333331,158.33333333333331 0,0,1 745.4075091166417,629.2141229161759Z" style="pointer-events: none; stroke-width: 1; fill: rgb(0, 204, 150); fill-opacity: 1; stroke: rgb(255, 255, 255); stroke-opacity: 1;"/><g class="slicetext"/></g><g class="slice cursor-pointer"><path class="surface" d="M1020.9557475898475,697.1721663146354L1141.911495179695,799.3443326292709A316.66666666666663,316.66666666666663 0,0,0 1216.6666666666665,595.0000000000001L1058.3333333333333,595A158.33333333333331,158.33333333333331 0,0,1 1020.9557475898475,697.1721663146354Z" style="pointer-events: none; stroke-width: 1; fill: rgb(171, 99, 250); fill-opacity: 1; stroke: rgb(255, 255, 255); stroke-opacity: 1;"/><g class="slicetext"/></g><g class="slice"><path class="surface" d="M1216.6666666666665,595L1375,595A475,475 0,0,0 1040.7665346070742,141.3373690343061L993.8443564047161,292.5582460228708A316.66666666666663,316.66666666666663 0,0,1 1216.6666666666665,595Z" style="pointer-events: none; stroke-width: 1; fill: rgb(99, 110, 250); fill-opacity: 1; stroke: rgb(255, 255, 255); stroke-opacity: 1; opacity: 0.7;"/><g class="slicetext"><text data-notex="1" class="slicetext" text-anchor="middle" x="0" y="0" style="font-family: 'Times New Roman'; font-size: 22px; fill: rgb(255, 255, 255); fill-opacity: 1; white-space: pre;" transform="translate(1214.7683486277463,355.4364680584429)scale(0.9069010028182856)rotate(-36.380728554641564)"><tspan class="line" dy="0em" x="0" y="0"><tspan style="font-weight:bold">Part Out of Reach</tspan></tspan><tspan class="line" dy="1.3em" x="0" y="0">172/851 (20.2%)</tspan></text></g></g><g class="slice"><path class="surface" d="M993.8443564047161,292.5582460228708L1040.7665346070742,141.3373690343061A475,475 0,0,0 916.6551480306474,120.29208344069377L911.1034320204317,278.5280556271292A316.66666666666663,316.66666666666663 0,0,1 993.8443564047161,292.5582460228708Z" style="pointer-events: none; stroke-width: 1; fill: rgb(99, 110, 250); fill-opacity: 1; stroke: rgb(255, 255, 255); stroke-opacity: 1; opacity: 0.7;"/><g class="slicetext"/></g><g class="slice"><path class="surface" d="M911.1034320204317,278.5280556271292L916.6551480306474,120.29208344069377A475,475 0,0,0 533.760426746494,292.5209511667134L655.8402844976627,393.347300777809A316.66666666666663,316.66666666666663 0,0,1 911.1034320204317,278.5280556271292Z" style="pointer-events: none; stroke-width: 1; fill: rgb(239, 85, 59); fill-opacity: 1; stroke: rgb(255, 255, 255); stroke-opacity: 1; opacity: 0.7;"/><g class="slicetext"/></g><g class="slice"><path class="surface" d="M655.8402844976627,393.347300777809L533.760426746494,292.5209511667134A475,475 0,0,0 436.22252734992475,697.6423687485277L590.8150182332832,663.4282458323518A316.66666666666663,316.66666666666663 0,0,1 655.8402844976627,393.347300777809Z" style="pointer-events: none; stroke-width: 1; fill: rgb(239, 85, 59); fill-opacity: 1; stroke: rgb(255, 255, 255); stroke-opacity: 1; opacity: 0.7;"/><g class="slicetext"/></g><g class="slice"><path class="surface" d="M590.8150182332832,663.4282458323518L436.22252734992475,697.6423687485277A475,475 0,0,0 614.7372946042025,974.8028289919263L709.8248630694684,848.2018859946174A316.66666666666663,316.66666666666663 0,0,1 590.8150182332832,663.4282458323518Z" style="pointer-events: none; stroke-width: 1; fill: rgb(0, 204, 150); fill-opacity: 1; stroke: rgb(255, 255, 255); stroke-opacity: 1; opacity: 0.7;"/><g class="slicetext"/></g><g class="slice"><path class="surface" d="M709.8248630694684,848.2018859946174L614.7372946042025,974.8028289919263A475,475 0,0,0 815.4073156056165,1062.4067583453968L843.604877070411,906.6045055635979A316.66666666666663,316.66666666666663 0,0,1 709.8248630694684,848.2018859946174Z" style="pointer-events: none; stroke-width: 1; fill: rgb(0, 204, 150); fill-opacity: 1; stroke: rgb(255, 255, 255); stroke-opacity: 1; opacity: 0.7;"/><g class="slicetext"/></g><g class="slice"><path class="surface" d="M843.604877070411,906.6045055635979L815.4073156056165,1062.4067583453968A475,475 0,0,0 1034.0523796939535,1050.6917373602337L989.3682531293024,898.794491573489A316.66666666666663,316.66666666666663 0,0,1 843.604877070411,906.6045055635979Z" style="pointer-events: none; stroke-width: 1; fill: rgb(0, 204, 150); fill-opacity: 1; stroke: rgb(255, 255, 255); stroke-opacity: 1; opacity: 0.7;"/><g class="slicetext"/></g><g class="slice"><path class="surface" d="M989.3682531293024,898.794491573489L1034.0523796939535,1050.6917373602337A475,475 0,0,0 1208.5211565652226,956.1643614085662L1105.6807710434819,835.7762409390441A316.66666666666663,316.66666666666663 0,0,1 989.3682531293024,898.794491573489Z" style="pointer-events: none; stroke-width: 1; fill: rgb(0, 204, 150); fill-opacity: 1; stroke: rgb(255, 255, 255); stroke-opacity: 1; opacity: 0.7;"/><g class="slicetext"/></g><g class="slice"><path class="surface" d="M1105.6807710434819,835.7762409390441L1208.5211565652226,956.1643614085662A475,475 0,0,0 1262.8672427695424,901.5164989439066L1141.911495179695,799.3443326292711A316.66666666666663,316.66666666666663 0,0,1 1105.6807710434819,835.7762409390441Z" style="pointer-events: none; stroke-width: 1; fill: rgb(0, 204, 150); fill-opacity: 1; stroke: rgb(255, 255, 255); stroke-opacity: 1; opacity: 0.7;"/><g class="slicetext"><text data-notex="1" class="slicetext" text-anchor="middle" x="0" y="0" style="font-family: 'Times New Roman'; font-size: 22px; fill: rgb(68, 68, 68); fill-opacity: 1; white-space: pre;" transform="translate(1187.0757239079576,871.7933806522514)scale(0.9069010028182856)rotate(44.84136310223272)"><tspan class="line" dy="0em" x="0" y="0"><tspan style="font-weight:bold">Missed Fastener</tspan></tspan><tspan class="line" dy="1.3em" x="0" y="0">22/851 (2.6%)</tspan></text></g></g><g class="slice"><path class="surface" d="M1141.911495179695,799.3443326292709L1262.8672427695428,901.5164989439063A475,475 0,0,0 1351.2616683951392,743.2831974204607L1200.841112263426,693.8554649469738A316.66666666666663,316.66666666666663 0,0,1 1141.911495179695,799.3443326292709Z" style="pointer-events: none; stroke-width: 1; fill: rgb(171, 99, 250); fill-opacity: 1; stroke: rgb(255, 255, 255); stroke-opacity: 1; opacity: 0.7;"/><g class="slicetext"/></g><g class="slice"><path class="surface" d="M1200.841112263426,693.8554649469738L1351.2616683951392,743.2831974204607A475,475 0,0,0 1375,595.0000000000001L1216.6666666666665,595.0000000000001A316.66666666666663,316.66666666666663 0,0,1 1200.841112263426,693.8554649469738Z" style="pointer-events: none; stroke-width: 1; fill: rgb(171, 99, 250); fill-opacity: 1; stroke: rgb(255, 255, 255); stroke-opacity: 1; opacity: 0.7;"/><g class="slicetext"/></g></g></g><g class="glimages"/><defs id="topdefs-f5ae8d"><g class="clips"/></defs><g class="layer-above"><g class="imagelayer"/><g class="shapelayer"/></g><g class="infolayer"><g class="g-gtitle"><text class="gtitle" x="900" y="60" text-anchor="middle" dy="0em" style="opacity: 1; font-family: 'Times New Roman'; font-size: 34px; fill: rgb(0, 0, 0); fill-opacity: 1; white-space: pre;"><tspan class="line" dy="0em" x="900" y="60">Assistance Needs Observed in Human–Human Coassembly</tspan><tspan class="line" dy="1.3em" x="900" y="60">​<tspan style="font-size:70%" dy="-0.6em">851 annotated assistance events</tspan><tspan dy="0.42em">​</tspan></tspan></text></g><g class="annotation" data-index="0" style="opacity: 1;"><g class="annotation-text-g" transform="rotate(0,1608.3,589.5)"><g class="cursor-pointer" transform="translate(1412,329)"><rect class="bg" x="0.5" y="0.5" width="392" height="520" style="stroke-width: 1px; stroke: rgb(0, 0, 0); stroke-opacity: 0; fill: rgb(0, 0, 0); fill-opacity: 0;"/><text class="annotation-text" text-anchor="start" x="2" y="20" style="font-family: 'Times New Roman'; font-size: 20px; fill: rgb(0, 0, 0); fill-opacity: 1; white-space: pre;"><tspan class="line" dy="0em" x="2" y="20"><tspan style="font-weight:bold">DETAILED EVENT CATEGORIES</tspan></tspan><tspan class="line" dy="1.3em" x="2" y="20"></tspan><tspan class="line" dy="2.6em" x="2" y="20"><tspan style=" fill:#4c5cff"><tspan style="font-weight:bold">• PHYSICAL SUPPORT</tspan></tspan></tspan><tspan class="line" dy="3.9000000000000004em" x="2" y="20">Part Out of Reach — <tspan style="font-weight:bold">172/851 (20.2%)</tspan></tspan><tspan class="line" dy="5.2em" x="2" y="20">Workpiece Stabilization — <tspan style="font-weight:bold">36/851 (4.2%)</tspan></tspan><tspan class="line" dy="6.5em" x="2" y="20"></tspan><tspan class="line" dy="7.800000000000001em" x="2" y="20"><tspan style=" fill:#f05a3a"><tspan style="font-weight:bold">• PART SEARCH &amp; TASK DECISIONS</tspan></tspan></tspan><tspan class="line" dy="9.1em" x="2" y="20">Unable to Locate Part — <tspan style="font-weight:bold">124/851 (14.6%)</tspan></tspan><tspan class="line" dy="10.4em" x="2" y="20">Uncertain About Next Step — <tspan style="font-weight:bold">123/851 (14.5%)</tspan></tspan><tspan class="line" dy="11.700000000000001em" x="2" y="20"></tspan><tspan class="line" dy="13em" x="2" y="20"><tspan style=" fill:#00c98d"><tspan style="font-weight:bold">• ASSEMBLY ERROR CORRECTION</tspan></tspan></tspan><tspan class="line" dy="14.3em" x="2" y="20">Incorrect Part Selection — <tspan style="font-weight:bold">96/851 (11.3%)</tspan></tspan><tspan class="line" dy="15.600000000000001em" x="2" y="20">Assembly-Order Violation — <tspan style="font-weight:bold">63/851 (7.4%)</tspan></tspan><tspan class="line" dy="16.900000000000002em" x="2" y="20">Incorrect Part Orientation — <tspan style="font-weight:bold">63/851 (7.4%)</tspan></tspan><tspan class="line" dy="18.2em" x="2" y="20">Incorrect Screwdriver / Bit — <tspan style="font-weight:bold">57/851 (6.7%)</tspan></tspan><tspan class="line" dy="19.5em" x="2" y="20">Missed Fastener — <tspan style="font-weight:bold">22/851 (2.6%)</tspan></tspan><tspan class="line" dy="20.8em" x="2" y="20"></tspan><tspan class="line" dy="22.1em" x="2" y="20"><tspan style=" fill:#a55cff"><tspan style="font-weight:bold">• CONVERSATIONAL SUPPORT</tspan></tspan></tspan><tspan class="line" dy="23.400000000000002em" x="2" y="20">Confirmation / Affirmation — <tspan style="font-weight:bold">52/851 (6.1%)</tspan></tspan><tspan class="line" dy="24.7em" x="2" y="20">Other Conversational Support — <tspan style="font-weight:bold">43/851 (5.1%)</tspan></tspan></text></g></g></g></g></svg>