{"asset":{"version":"2.0","generator":"Unity 6000.2.14f1 glTFast 6.19.0"},"nodes":[{"name":"Handle","mesh":0}],"buffers":[{"uri":"Handle.bin","byteLength":891040}],"bufferViews":[{"buffer":0,"byteLength":331488,"target":34963},{"buffer":0,"byteLength":419664,"byteOffset":331488,"byteStride":24,"target":34962},{"buffer":0,"byteLength":139888,"byteOffset":751152,"byteStride":8,"target":34962}],"accessors":[{"bufferView":1,"componentType":5126,"count":17486,"type":"VEC3","max":[0.0105029,0.0559918433,0.01799176],"min":[-0.0105029,-0.0559918,-0.0179959]},{"bufferView":1,"componentType":5126,"count":17486,"type":"VEC3","byteOffset":12},{"bufferView":2,"componentType":5126,"count":17486,"type":"VEC2"},{"bufferView":0,"componentType":5125,"count":174,"type":"SCALAR"},{"bufferView":0,"componentType":5125,"count":174,"type":"SCALAR","byteOffset":696},{"bufferView":0,"componentType":5125,"count":348,"type":"SCALAR","byteOffset":1392},{"bufferView":0,"componentType":5125,"count":174,"type":"SCALAR","byteOffset":2784},{"bufferView":0,"componentType":5125,"count":174,"type":"SCALAR","byteOffset":3480},{"bufferView":0,"componentType":5125,"count":360,"type":"SCALAR","byteOffset":4176},{"bufferView":0,"componentType":5125,"count":141,"type":"SCALAR","byteOffset":5616},{"bufferView":0,"componentType":5125,"count":39,"type":"SCALAR","byteOffset":6180},{"bufferView":0,"componentType":5125,"count":141,"type":"SCALAR","byteOffset":6336},{"bufferView":0,"componentType":5125,"count":66,"type":"SCALAR","byteOffset":6900},{"bufferView":0,"componentType":5125,"count":60,"type":"SCALAR","byteOffset":7164},{"bufferView":0,"componentType":5125,"count":11082,"type":"SCALAR","byteOffset":7404},{"bufferView":0,"componentType":5125,"count":222,"type":"SCALAR","byteOffset":51732},{"bufferView":0,"componentType":5125,"count":135,"type":"SCALAR","byteOffset":52620},{"bufferView":0,"componentType":5125,"count":24,"type":"SCALAR","byteOffset":53160},{"bufferView":0,"componentType":5125,"count":13944,"type":"SCALAR","byteOffset":53256},{"bufferView":0,"componentType":5125,"count":42,"type":"SCALAR","byteOffset":109032},{"bufferView":0,"componentType":5125,"count":222,"type":"SCALAR","byteOffset":109200},{"bufferView":0,"componentType":5125,"count":126,"type":"SCALAR","byteOffset":110088},{"bufferView":0,"componentType":5125,"count":237,"type":"SCALAR","byteOffset":110592},{"bufferView":0,"componentType":5125,"count":14055,"type":"SCALAR","byteOffset":111540},{"bufferView":0,"componentType":5125,"count":11157,"type":"SCALAR","byteOffset":167760},{"bufferView":0,"componentType":5125,"count":147,"type":"SCALAR","byteOffset":212388},{"bufferView":0,"componentType":5125,"count":39,"type":"SCALAR","byteOffset":212976},{"bufferView":0,"componentType":5125,"count":144,"type":"SCALAR","byteOffset":213132},{"bufferView":0,"componentType":5125,"count":57,"type":"SCALAR","byteOffset":213708},{"bufferView":0,"componentType":5125,"count":63,"type":"SCALAR","byteOffset":213936},{"bufferView":0,"componentType":5125,"count":360,"type":"SCALAR","byteOffset":214188},{"bufferView":0,"componentType":5125,"count":174,"type":"SCALAR","byteOffset":215628},{"bufferView":0,"componentType":5125,"count":174,"type":"SCALAR","byteOffset":216324},{"bufferView":0,"componentType":5125,"count":348,"type":"SCALAR","byteOffset":217020},{"bufferView":0,"componentType":5125,"count":174,"type":"SCALAR","byteOffset":218412},{"bufferView":0,"componentType":5125,"count":174,"type":"SCALAR","byteOffset":219108},{"bufferView":0,"componentType":5125,"count":1098,"type":"SCALAR","byteOffset":219804},{"bufferView":0,"componentType":5125,"count":1068,"type":"SCALAR","byteOffset":224196},{"bufferView":0,"componentType":5125,"count":1068,"type":"SCALAR","byteOffset":228468},{"bufferView":0,"componentType":5125,"count":738,"type":"SCALAR","byteOffset":232740},{"bufferView":0,"componentType":5125,"count":111,"type":"SCALAR","byteOffset":235692},{"bufferView":0,"componentType":5125,"count":90,"type":"SCALAR","byteOffset":236136},{"bufferView":0,"componentType":5125,"count":60,"type":"SCALAR","byteOffset":236496},{"bufferView":0,"componentType":5125,"count":6,"type":"SCALAR","byteOffset":236736},{"bufferView":0,"componentType":5125,"count":168,"type":"SCALAR","byteOffset":236760},{"bufferView":0,"componentType":5125,"count":141,"type":"SCALAR","byteOffset":237432},{"bufferView":0,"componentType":5125,"count":78,"type":"SCALAR","byteOffset":237996},{"bufferView":0,"componentType":5125,"count":192,"type":"SCALAR","byteOffset":238308},{"bufferView":0,"componentType":5125,"count":168,"type":"SCALAR","byteOffset":239076},{"bufferView":0,"componentType":5125,"count":141,"type":"SCALAR","byteOffset":239748},{"bufferView":0,"componentType":5125,"count":2085,"type":"SCALAR","byteOffset":240312},{"bufferView":0,"componentType":5125,"count":9,"type":"SCALAR","byteOffset":248652},{"bufferView":0,"componentType":5125,"count":60,"type":"SCALAR","byteOffset":248688},{"bufferView":0,"componentType":5125,"count":180,"type":"SCALAR","byteOffset":248928},{"bufferView":0,"componentType":5125,"count":129,"type":"SCALAR","byteOffset":249648},{"bufferView":0,"componentType":5125,"count":735,"type":"SCALAR","byteOffset":250164},{"bufferView":0,"componentType":5125,"count":108,"type":"SCALAR","byteOffset":253104},{"bufferView":0,"componentType":5125,"count":90,"type":"SCALAR","byteOffset":253536},{"bufferView":0,"componentType":5125,"count":60,"type":"SCALAR","byteOffset":253896},{"bufferView":0,"componentType":5125,"count":6,"type":"SCALAR","byteOffset":254136},{"bufferView":0,"componentType":5125,"count":168,"type":"SCALAR","byteOffset":254160},{"bufferView":0,"componentType":5125,"count":141,"type":"SCALAR","byteOffset":254832},{"bufferView":0,"componentType":5125,"count":81,"type":"SCALAR","byteOffset":255396},{"bufferView":0,"componentType":5125,"count":189,"type":"SCALAR","byteOffset":255720},{"bufferView":0,"componentType":5125,"count":165,"type":"SCALAR","byteOffset":256476},{"bufferView":0,"componentType":5125,"count":141,"type":"SCALAR","byteOffset":257136},{"bufferView":0,"componentType":5125,"count":1059,"type":"SCALAR","byteOffset":257700},{"bufferView":0,"componentType":5125,"count":1020,"type":"SCALAR","byteOffset":261936},{"bufferView":0,"componentType":5125,"count":9,"type":"SCALAR","byteOffset":266016},{"bufferView":0,"componentType":5125,"count":60,"type":"SCALAR","byteOffset":266052},{"bufferView":0,"componentType":5125,"count":126,"type":"SCALAR","byteOffset":266292},{"bufferView":0,"componentType":5125,"count":2049,"type":"SCALAR","byteOffset":266796},{"bufferView":0,"componentType":5125,"count":180,"type":"SCALAR","byteOffset":274992},{"bufferView":0,"componentType":5125,"count":1077,"type":"SCALAR","byteOffset":275712},{"bufferView":0,"componentType":5125,"count":1068,"type":"SCALAR","byteOffset":280020},{"bufferView":0,"componentType":5125,"count":1068,"type":"SCALAR","byteOffset":284292},{"bufferView":0,"componentType":5125,"count":735,"type":"SCALAR","byteOffset":288564},{"bufferView":0,"componentType":5125,"count":108,"type":"SCALAR","byteOffset":291504},{"bufferView":0,"componentType":5125,"count":60,"type":"SCALAR","byteOffset":291936},{"bufferView":0,"componentType":5125,"count":90,"type":"SCALAR","byteOffset":292176},{"bufferView":0,"componentType":5125,"count":6,"type":"SCALAR","byteOffset":292536},{"bufferView":0,"componentType":5125,"count":168,"type":"SCALAR","byteOffset":292560},{"bufferView":0,"componentType":5125,"count":141,"type":"SCALAR","byteOffset":293232},{"bufferView":0,"componentType":5125,"count":81,"type":"SCALAR","byteOffset":293796},{"bufferView":0,"componentType":5125,"count":189,"type":"SCALAR","byteOffset":294120},{"bufferView":0,"componentType":5125,"count":165,"type":"SCALAR","byteOffset":294876},{"bufferView":0,"componentType":5125,"count":141,"type":"SCALAR","byteOffset":295536},{"bufferView":0,"componentType":5125,"count":2079,"type":"SCALAR","byteOffset":296100},{"bufferView":0,"componentType":5125,"count":9,"type":"SCALAR","byteOffset":304416},{"bufferView":0,"componentType":5125,"count":180,"type":"SCALAR","byteOffset":304452},{"bufferView":0,"componentType":5125,"count":60,"type":"SCALAR","byteOffset":305172},{"bufferView":0,"componentType":5125,"count":126,"type":"SCALAR","byteOffset":305412},{"bufferView":0,"componentType":5125,"count":738,"type":"SCALAR","byteOffset":305916},{"bufferView":0,"componentType":5125,"count":111,"type":"SCALAR","byteOffset":308868},{"bufferView":0,"componentType":5125,"count":90,"type":"SCALAR","byteOffset":309312},{"bufferView":0,"componentType":5125,"count":60,"type":"SCALAR","byteOffset":309672},{"bufferView":0,"componentType":5125,"count":6,"type":"SCALAR","byteOffset":309912},{"bufferView":0,"componentType":5125,"count":168,"type":"SCALAR","byteOffset":309936},{"bufferView":0,"componentType":5125,"count":141,"type":"SCALAR","byteOffset":310608},{"bufferView":0,"componentType":5125,"count":81,"type":"SCALAR","byteOffset":311172},{"bufferView":0,"componentType":5125,"count":189,"type":"SCALAR","byteOffset":311496},{"bufferView":0,"componentType":5125,"count":168,"type":"SCALAR","byteOffset":312252},{"bufferView":0,"componentType":5125,"count":141,"type":"SCALAR","byteOffset":312924},{"bufferView":0,"componentType":5125,"count":2079,"type":"SCALAR","byteOffset":313488},{"bufferView":0,"componentType":5125,"count":9,"type":"SCALAR","byteOffset":321804},{"bufferView":0,"componentType":5125,"count":57,"type":"SCALAR","byteOffset":321840},{"bufferView":0,"componentType":5125,"count":2049,"type":"SCALAR","byteOffset":322068},{"bufferView":0,"componentType":5125,"count":180,"type":"SCALAR","byteOffset":330264},{"bufferView":0,"componentType":5125,"count":126,"type":"SCALAR","byteOffset":330984}],"materials":[{"name":"0.972549_0.529412_0.003922_0.000000_0.000000","pbrMetallicRoughness":{"baseColorFactor":[0.9725489,0.529411733,0.00392156467,1],"metallicFactor":0},"doubleSided":true}],"meshes":[{"name":"mesh0_mesh","primitives":[{"attributes":{"POSITION":0,"NORMAL":1,"TEXCOORD_0":2},"indices":3,"material":0},{"attributes":{"POSITION":0,"NORMAL":1,"TEXCOORD_0":2},"indices":4,"material":0},{"attributes":{"POSITION":0,"NORMAL":1,"TEXCOORD_0":2},"indices":5,"material":0},{"attributes":{"POSITION":0,"NORMAL":1,"TEXCOORD_0":2},"indices":6,"material":0},{"attributes":{"POSITION":0,"NORMAL":1,"TEXCOORD_0":2},"indices":7,"material":0},{"attributes":{"POSITION":0,"NORMAL":1,"TEXCOORD_0":2},"indices":8,"material":0},{"attributes":{"POSITION":0,"NORMAL":1,"TEXCOORD_0":2},"indices":9,"material":0},{"attributes":{"POSITION":0,"NORMAL":1,"TEXCOORD_0":2},"indices":10,"material":0},{"attributes":{"POSITION":0,"NORMAL":1,"TEXCOORD_0":2},"indices":11,"material":0},{"attributes":{"POSITION":0,"NORMAL":1,"TEXCOORD_0":2},"indices":12,"material":0},{"attributes":{"POSITION":0,"NORMAL":1,"TEXCOORD_0":2},"indices":13,"material":0},{"attributes":{"POSITION":0,"NORMAL":1,"TEXCOORD_0":2},"indices":14,"material":0},{"attributes":{"POSITION":0,"NORMAL":1,"TEXCOORD_0":2},"indices":15,"material":0},{"attributes":{"POSITION":0,"NORMAL":1,"TEXCOORD_0":2},"indices":16,"material":0},{"attributes":{"POSITION":0,"NORMAL":1,"TEXCOORD_0":2},"indices":17,"material":0},{"attributes":{"POSITION":0,"NORMAL":1,"TEXCOORD_0":2},"indices":18,"material":0},{"attributes":{"POSITION":0,"NORMAL":1,"TEXCOORD_0":2},"indices":19,"material":0},{"attributes":{"POSITION":0,"NORMAL":1,"TEXCOORD_0":2},"indices":20,"material":0},{"attributes":{"POSITION":0,"NORMAL":1,"TEXCOORD_0":2},"indices":21,"material":0},{"attributes":{"POSITION":0,"NORMAL":1,"TEXCOORD_0":2},"indices":22,"material":0},{"attributes":{"POSITION":0,"NORMAL":1,"TEXCOORD_0":2},"indices":23,"material":0},{"attributes":{"POSITION":0,"NORMAL":1,"TEXCOORD_0":2},"indices":24,"material":0},{"attributes":{"POSITION":0,"NORMAL":1,"TEXCOORD_0":2},"indices":25,"material":0},{"attributes":{"POSITION":0,"NORMAL":1,"TEXCOORD_0":2},"indices":26,"material":0},{"attributes":{"POSITION":0,"NORMAL":1,"TEXCOORD_0":2},"indices":27,"material":0},{"attributes":{"POSITION":0,"NORMAL":1,"TEXCOORD_0":2},"indices":28,"material":0},{"attributes":{"POSITION":0,"NORMAL":1,"TEXCOORD_0":2},"indices":29,"material":0},{"attributes":{"POSITION":0,"NORMAL":1,"TEXCOORD_0":2},"indices":30,"material":0},{"attributes":{"POSITION":0,"NORMAL":1,"TEXCOORD_0":2},"indices":31,"material":0},{"attributes":{"POSITION":0,"NORMAL":1,"TEXCOORD_0":2},"indices":32,"material":0},{"attributes":{"POSITION":0,"NORMAL":1,"TEXCOORD_0":2},"indices":33,"material":0},{"attributes":{"POSITION":0,"NORMAL":1,"TEXCOORD_0":2},"indices":34,"material":0},{"attributes":{"POSITION":0,"NORMAL":1,"TEXCOORD_0":2},"indices":35,"material":0},{"attributes":{"POSITION":0,"NORMAL":1,"TEXCOORD_0":2},"indices":36,"material":0},{"attributes":{"POSITION":0,"NORMAL":1,"TEXCOORD_0":2},"indices":37,"material":0},{"attributes":{"POSITION":0,"NORMAL":1,"TEXCOORD_0":2},"indices":38,"material":0},{"attributes":{"POSITION":0,"NORMAL":1,"TEXCOORD_0":2},"indices":39,"material":0},{"attributes":{"POSITION":0,"NORMAL":1,"TEXCOORD_0":2},"indices":40,"material":0},{"attributes":{"POSITION":0,"NORMAL":1,"TEXCOORD_0":2},"indices":41,"material":0},{"attributes":{"POSITION":0,"NORMAL":1,"TEXCOORD_0":2},"indices":42,"material":0},{"attributes":{"POSITION":0,"NORMAL":1,"TEXCOORD_0":2},"indices":43,"material":0},{"attributes":{"POSITION":0,"NORMAL":1,"TEXCOORD_0":2},"indices":44,"material":0},{"attributes":{"POSITION":0,"NORMAL":1,"TEXCOORD_0":2},"indices":45,"material":0},{"attributes":{"POSITION":0,"NORMAL":1,"TEXCOORD_0":2},"indices":46,"material":0},{"attributes":{"POSITION":0,"NORMAL":1,"TEXCOORD_0":2},"indices":47,"material":0},{"attributes":{"POSITION":0,"NORMAL":1,"TEXCOORD_0":2},"indices":48,"material":0},{"attributes":{"POSITION":0,"NORMAL":1,"TEXCOORD_0":2},"indices":49,"material":0},{"attributes":{"POSITION":0,"NORMAL":1,"TEXCOORD_0":2},"indices":50,"material":0},{"attributes":{"POSITION":0,"NORMAL":1,"TEXCOORD_0":2},"indices":51,"material":0},{"attributes":{"POSITION":0,"NORMAL":1,"TEXCOORD_0":2},"indices":52,"material":0},{"attributes":{"POSITION":0,"NORMAL":1,"TEXCOORD_0":2},"indices":53,"material":0},{"attributes":{"POSITION":0,"NORMAL":1,"TEXCOORD_0":2},"indices":54,"material":0},{"attributes":{"POSITION":0,"NORMAL":1,"TEXCOORD_0":2},"indices":55,"material":0},{"attributes":{"POSITION":0,"NORMAL":1,"TEXCOORD_0":2},"indices":56,"material":0},{"attributes":{"POSITION":0,"NORMAL":1,"TEXCOORD_0":2},"indices":57,"material":0},{"attributes":{"POSITION":0,"NORMAL":1,"TEXCOORD_0":2},"indices":58,"material":0},{"attributes":{"POSITION":0,"NORMAL":1,"TEXCOORD_0":2},"indices":59,"material":0},{"attributes":{"POSITION":0,"NORMAL":1,"TEXCOORD_0":2},"indices":60,"material":0},{"attributes":{"POSITION":0,"NORMAL":1,"TEXCOORD_0":2},"indices":61,"material":0},{"attributes":{"POSITION":0,"NORMAL":1,"TEXCOORD_0":2},"indices":62,"material":0},{"attributes":{"POSITION":0,"NORMAL":1,"TEXCOORD_0":2},"indices":63,"material":0},{"attributes":{"POSITION":0,"NORMAL":1,"TEXCOORD_0":2},"indices":64,"material":0},{"attributes":{"POSITION":0,"NORMAL":1,"TEXCOORD_0":2},"indices":65,"material":0},{"attributes":{"POSITION":0,"NORMAL":1,"TEXCOORD_0":2},"indices":66,"material":0},{"attributes":{"POSITION":0,"NORMAL":1,"TEXCOORD_0":2},"indices":67,"material":0},{"attributes":{"POSITION":0,"NORMAL":1,"TEXCOORD_0":2},"indices":68,"material":0},{"attributes":{"POSITION":0,"NORMAL":1,"TEXCOORD_0":2},"indices":69,"material":0},{"attributes":{"POSITION":0,"NORMAL":1,"TEXCOORD_0":2},"indices":70,"material":0},{"attributes":{"POSITION":0,"NORMAL":1,"TEXCOORD_0":2},"indices":71,"material":0},{"attributes":{"POSITION":0,"NORMAL":1,"TEXCOORD_0":2},"indices":72,"material":0},{"attributes":{"POSITION":0,"NORMAL":1,"TEXCOORD_0":2},"indices":73,"material":0},{"attributes":{"POSITION":0,"NORMAL":1,"TEXCOORD_0":2},"indices":74,"material":0},{"attributes":{"POSITION":0,"NORMAL":1,"TEXCOORD_0":2},"indices":75,"material":0},{"attributes":{"POSITION":0,"NORMAL":1,"TEXCOORD_0":2},"indices":76,"material":0},{"attributes":{"POSITION":0,"NORMAL":1,"TEXCOORD_0":2},"indices":77,"material":0},{"attributes":{"POSITION":0,"NORMAL":1,"TEXCOORD_0":2},"indices":78,"material":0},{"attributes":{"POSITION":0,"NORMAL":1,"TEXCOORD_0":2},"indices":79,"material":0},{"attributes":{"POSITION":0,"NORMAL":1,"TEXCOORD_0":2},"indices":80,"material":0},{"attributes":{"POSITION":0,"NORMAL":1,"TEXCOORD_0":2},"indices":81,"material":0},{"attributes":{"POSITION":0,"NORMAL":1,"TEXCOORD_0":2},"indices":82,"material":0},{"attributes":{"POSITION":0,"NORMAL":1,"TEXCOORD_0":2},"indices":83,"material":0},{"attributes":{"POSITION":0,"NORMAL":1,"TEXCOORD_0":2},"indices":84,"material":0},{"attributes":{"POSITION":0,"NORMAL":1,"TEXCOORD_0":2},"indices":85,"material":0},{"attributes":{"POSITION":0,"NORMAL":1,"TEXCOORD_0":2},"indices":86,"material":0},{"attributes":{"POSITION":0,"NORMAL":1,"TEXCOORD_0":2},"indices":87,"material":0},{"attributes":{"POSITION":0,"NORMAL":1,"TEXCOORD_0":2},"indices":88,"material":0},{"attributes":{"POSITION":0,"NORMAL":1,"TEXCOORD_0":2},"indices":89,"material":0},{"attributes":{"POSITION":0,"NORMAL":1,"TEXCOORD_0":2},"indices":90,"material":0},{"attributes":{"POSITION":0,"NORMAL":1,"TEXCOORD_0":2},"indices":91,"material":0},{"attributes":{"POSITION":0,"NORMAL":1,"TEXCOORD_0":2},"indices":92,"material":0},{"attributes":{"POSITION":0,"NORMAL":1,"TEXCOORD_0":2},"indices":93,"material":0},{"attributes":{"POSITION":0,"NORMAL":1,"TEXCOORD_0":2},"indices":94,"material":0},{"attributes":{"POSITION":0,"NORMAL":1,"TEXCOORD_0":2},"indices":95,"material":0},{"attributes":{"POSITION":0,"NORMAL":1,"TEXCOORD_0":2},"indices":96,"material":0},{"attributes":{"POSITION":0,"NORMAL":1,"TEXCOORD_0":2},"indices":97,"material":0},{"attributes":{"POSITION":0,"NORMAL":1,"TEXCOORD_0":2},"indices":98,"material":0},{"attributes":{"POSITION":0,"NORMAL":1,"TEXCOORD_0":2},"indices":99,"material":0},{"attributes":{"POSITION":0,"NORMAL":1,"TEXCOORD_0":2},"indices":100,"material":0},{"attributes":{"POSITION":0,"NORMAL":1,"TEXCOORD_0":2},"indices":101,"material":0},{"attributes":{"POSITION":0,"NORMAL":1,"TEXCOORD_0":2},"indices":102,"material":0},{"attributes":{"POSITION":0,"NORMAL":1,"TEXCOORD_0":2},"indices":103,"material":0},{"attributes":{"POSITION":0,"NORMAL":1,"TEXCOORD_0":2},"indices":104,"material":0},{"attributes":{"POSITION":0,"NORMAL":1,"TEXCOORD_0":2},"indices":105,"material":0},{"attributes":{"POSITION":0,"NORMAL":1,"TEXCOORD_0":2},"indices":106,"material":0},{"attributes":{"POSITION":0,"NORMAL":1,"TEXCOORD_0":2},"indices":107,"material":0},{"attributes":{"POSITION":0,"NORMAL":1,"TEXCOORD_0":2},"indices":108,"material":0}]}],"scene":0,"scenes":[{"name":"Handle","nodes":[0]}]}